<svg width="20" height="22" viewBox="0 0 20 22" fill="none" xmlns="http://www.w3.org/2000/svg">
<path d="M19.4475 6.83587C18.6349 6.84096 18.7148 8.34884 17.7025 7.6374C17.3265 7.37379 17.0953 6.99058 16.6233 6.87404C16.2109 6.77226 15.7885 6.87811 15.3812 6.94885C14.9183 7.02926 14.3693 7.06539 14.0182 7.41806C13.6787 7.7575 13.4991 8.21297 13.1379 8.55444C12.4392 9.21602 12.1442 9.93815 12.5965 10.8735C13.0316 11.7727 13.9418 12.2608 14.9238 12.1967C15.8887 12.132 16.8909 11.5692 16.8631 12.9794C16.853 13.4781 16.9567 13.8241 17.109 14.2878C17.2501 14.7152 17.2405 15.1295 17.2729 15.5707C17.3326 16.3951 17.4834 17.3193 17.8902 18.0475L18.6491 16.9707C18.7427 16.8374 18.9385 16.6506 18.985 16.4933C19.0675 16.215 18.9051 15.7366 18.8864 15.4246C18.8676 15.1127 18.8767 14.7967 18.8292 14.4847C18.7624 14.0475 18.5054 13.6379 18.47 13.2058C18.4047 12.4012 18.5509 11.759 17.9347 11.0862C17.3397 10.4374 16.4675 10.2817 15.6342 10.4135C15.2142 10.4796 13.5239 10.7514 14.2024 9.78599C14.3364 9.59617 14.5707 9.44044 14.7215 9.25978C14.8525 9.10253 14.9663 8.81347 15.1201 8.69083C15.2739 8.56818 15.9802 8.42722 16.1826 8.48981C16.385 8.55241 16.596 8.84604 16.7715 8.97632C17.0959 9.22207 17.4744 9.38547 17.875 9.45266C18.5661 9.55444 20.0111 9.15037 19.9999 8.25877C19.9979 7.83129 19.6033 7.23587 19.4475 6.83587ZM11.4475 14.1722C11.1778 13.0302 9.63524 12.6486 8.80347 12.0292C8.32535 11.673 7.89986 11.1229 7.27199 11.0781C6.98259 11.0572 6.74024 11.1203 6.45337 11.0455C6.19029 10.9773 5.98386 10.8348 5.70357 10.872C5.17992 10.9412 4.84954 11.504 4.28694 11.4277C3.75317 11.3554 3.20321 10.7275 3.08179 10.216C2.92596 9.55851 3.44303 9.34528 3.99703 9.28675C4.22825 9.26233 4.48779 9.23586 4.7099 9.32085C5.00234 9.43027 5.14046 9.7183 5.40304 9.86385C5.89532 10.1351 5.99499 9.70151 5.91961 9.26182C5.80678 8.6033 5.67524 8.3346 6.25909 7.88167C6.66385 7.5692 7.00991 7.34325 6.94515 6.78193C6.9067 6.45216 6.72709 6.30305 6.89456 5.97481C7.02155 5.72494 7.37014 5.49949 7.59731 5.35038C8.18369 4.96565 10.1093 4.99415 9.32256 3.91731C9.09135 3.60128 8.66484 3.0364 8.26009 2.95905C7.75415 2.86286 7.52951 3.4308 7.17687 3.68118C6.81259 3.94021 6.10326 4.23436 5.73848 3.83385C5.24772 3.29492 6.0638 3.11782 6.24442 2.74174C6.42504 2.36566 5.82601 1.65473 5.50524 1.47457L3.99703 3.17584C3.95371 3.46075 3.96879 3.75157 4.04135 4.0304C4.11392 4.30924 4.24243 4.57019 4.41899 4.79721C4.71901 5.1855 5.19662 5.31018 5.21837 5.84046C5.23962 6.34936 5.1607 6.60992 4.82981 6.96768C4.68663 7.12035 4.58544 7.33714 4.43973 7.48015C4.26113 7.6547 4.32741 7.60126 4.04864 7.6491C3.52448 7.73816 3.07824 7.87556 2.5718 8.01602C1.72789 8.25063 1.64997 6.86386 1.26546 6.31985L0.000606292 7.34732C-0.0130541 7.51577 0.208042 7.82569 0.268249 8.0089C0.613806 9.05571 1.31099 9.86538 1.76128 10.8669C2.23535 11.9275 3.50829 11.6333 4.07039 12.5626C4.56925 13.387 4.0365 14.4308 4.40988 15.2939C4.68106 15.9203 5.32057 16.0572 5.76175 16.5152C6.21255 16.9778 6.20293 17.6109 6.27174 18.2129C6.34934 18.921 6.47528 19.6229 6.64867 20.3137C6.70989 20.5524 6.76605 20.8679 6.92845 21.0648C7.03976 21.2002 7.42174 21.3167 7.26743 21.3615C7.48296 21.3971 7.86697 21.5997 8.04658 21.4511C8.28336 21.2557 8.22012 20.6541 8.2611 20.3824C8.38404 19.5732 8.78677 18.7819 9.33015 18.1763C9.86696 17.5788 10.6026 17.1743 11.0559 16.4969C11.4976 15.8363 11.6307 14.9453 11.4475 14.1722ZM9.75818 15.5117C9.45461 16.0567 8.77868 16.4216 8.34408 16.8547C8.22619 16.9722 7.97524 17.3793 7.82751 17.2913C7.72177 17.2282 7.68585 16.7 7.64689 16.5788C7.44591 15.9689 7.06223 15.4365 6.54849 15.0547C6.39013 14.9341 5.99752 14.7773 5.90696 14.6119C5.80577 14.4323 5.89684 14.0084 5.90038 13.8129C5.90595 13.528 5.77693 13.0542 5.84675 12.7951C5.9277 12.4964 5.77187 12.6766 6.03749 12.6175C6.17764 12.586 6.75643 12.6883 6.93098 12.7249C7.20824 12.7829 7.36103 12.9565 7.5796 13.132C8.15435 13.5956 8.78728 13.9544 9.43134 14.3096C9.9302 14.5875 10.0769 14.9391 9.75818 15.5117ZM6.23683 1.48984C6.47665 1.72546 6.7023 2.00434 7.06 2.02775C7.39847 2.05065 7.71772 1.86643 8.01319 2.09798C8.34104 2.35243 8.57731 2.67457 9.01242 2.75396C9.43337 2.8308 9.8791 2.58347 9.98332 2.1504C10.0845 1.73768 9.86645 1.28882 9.8533 0.874576C9.8533 0.81707 9.88416 0.561601 9.8447 0.518344C9.81535 0.485774 9.57047 0.522415 9.53304 0.523433C9.25882 0.531575 8.98527 0.550574 8.7124 0.58043C7.71763 0.688732 6.74342 0.939796 5.81943 1.32597C5.94237 1.41147 6.09669 1.44557 6.23683 1.48984ZM14.936 4.34886C15.3655 4.34886 15.8016 4.15548 15.663 3.65574C15.5466 3.23691 15.3483 2.78246 14.8657 3.00841C14.5585 3.15192 14.1234 3.51731 14.0875 3.87965C14.0465 4.29085 14.6496 4.34886 14.936 4.34886ZM14.5929 6.53562C15.0316 6.79974 15.6822 6.67557 16.0131 6.29847C16.2717 6.00331 16.4239 5.49084 16.8889 5.49135C17.0936 5.49092 17.2903 5.57154 17.4363 5.71578C17.6286 5.91578 17.5906 6.10356 17.6316 6.35394C17.7232 6.91628 18.3227 6.386 18.4791 6.16819C18.5803 6.02621 18.7174 5.81552 18.6713 5.63079C18.6288 5.45827 18.4285 5.27456 18.3394 5.11629C18.0794 4.65828 17.8654 4.12545 17.4758 3.75548C17.1009 3.39925 16.64 3.44047 16.2843 3.81044C15.9929 4.11578 15.6544 4.35751 15.4551 4.72901C15.3144 4.99008 15.1561 5.11476 14.8712 5.18245C14.7144 5.2196 14.5353 5.23334 14.4037 5.33919C14.0374 5.62926 14.2459 6.32595 14.5929 6.53562Z" fill="#CDA274"/>
</svg>
