<svg width="18" height="17" viewBox="0 0 18 17" fill="none" xmlns="http://www.w3.org/2000/svg">
<path d="M8.86397 4.1123C6.48897 4.1123 4.59639 6.04199 4.59639 8.37988C4.59639 10.7549 6.48897 12.6475 8.86397 12.6475C11.2019 12.6475 13.1316 10.7549 13.1316 8.37988C13.1316 6.04199 11.2019 4.1123 8.86397 4.1123ZM8.86397 11.1631C7.34249 11.1631 6.08077 9.93848 6.08077 8.37988C6.08077 6.8584 7.30538 5.63379 8.86397 5.63379C10.3855 5.63379 11.6101 6.8584 11.6101 8.37988C11.6101 9.93848 10.3855 11.1631 8.86397 11.1631ZM14.2819 3.96387C14.2819 3.40723 13.8366 2.96191 13.28 2.96191C12.7233 2.96191 12.278 3.40723 12.278 3.96387C12.278 4.52051 12.7233 4.96582 13.28 4.96582C13.8366 4.96582 14.2819 4.52051 14.2819 3.96387ZM17.1023 4.96582C17.028 3.62988 16.7312 2.44238 15.7663 1.47754C14.8015 0.512695 13.614 0.21582 12.278 0.141602C10.905 0.0673828 6.78585 0.0673828 5.4128 0.141602C4.07686 0.21582 2.92647 0.512695 1.92452 1.47754C0.959676 2.44238 0.662801 3.62988 0.588582 4.96582C0.514363 6.33887 0.514363 10.458 0.588582 11.8311C0.662801 13.167 0.959676 14.3174 1.92452 15.3193C2.92647 16.2842 4.07686 16.5811 5.4128 16.6553C6.78585 16.7295 10.905 16.7295 12.278 16.6553C13.614 16.5811 14.8015 16.2842 15.7663 15.3193C16.7312 14.3174 17.028 13.167 17.1023 11.8311C17.1765 10.458 17.1765 6.33887 17.1023 4.96582ZM15.321 13.2783C15.0612 14.0205 14.4675 14.5771 13.7624 14.874C12.6491 15.3193 10.0515 15.208 8.86397 15.208C7.63936 15.208 5.04171 15.3193 3.96554 14.874C3.22335 14.5771 2.66671 14.0205 2.36983 13.2783C1.92452 12.2021 2.03585 9.60449 2.03585 8.37988C2.03585 7.19238 1.92452 4.59473 2.36983 3.48145C2.66671 2.77637 3.22335 2.21973 3.96554 1.92285C5.04171 1.47754 7.63936 1.58887 8.86397 1.58887C10.0515 1.58887 12.6491 1.47754 13.7624 1.92285C14.4675 2.18262 15.0241 2.77637 15.321 3.48145C15.7663 4.59473 15.655 7.19238 15.655 8.37988C15.655 9.60449 15.7663 12.2021 15.321 13.2783Z" fill="#292F36"/>
</svg>
