<svg width="16" height="16" viewBox="0 0 16 16" fill="none" xmlns="http://www.w3.org/2000/svg">
<path d="M3.64676 15.9829V5.47119H0.377231V15.9829H3.64676ZM1.99442 4.06494C3.04911 4.06494 3.89286 3.18604 3.89286 2.13135C3.89286 1.11182 3.04911 0.268066 1.99442 0.268066C0.974887 0.268066 0.131137 1.11182 0.131137 2.13135C0.131137 3.18604 0.974887 4.06494 1.99442 4.06494ZM15.846 15.9829H15.8811V10.2173C15.8811 7.40479 15.2483 5.2251 11.9436 5.2251C10.3616 5.2251 9.30692 6.104 8.84989 6.9126H8.81473V5.47119H5.68582V15.9829H8.95536V10.7798C8.95536 9.40869 9.20145 8.10791 10.8889 8.10791C12.5764 8.10791 12.6116 9.65479 12.6116 10.8853V15.9829H15.846Z" fill="#292F36"/>
</svg>
