<svg width="23" height="24" viewBox="0 0 23 24" fill="none" xmlns="http://www.w3.org/2000/svg">
<path d="M21.3445 17.9603C20.5429 17.1527 18.6013 15.974 17.6593 15.499C16.4326 14.8811 16.3317 14.8306 15.3675 15.5469C14.7243 16.025 14.2967 16.452 13.5441 16.2915C12.7914 16.131 11.1558 15.2259 9.72358 13.7984C8.2914 12.3708 7.33376 10.6879 7.17272 9.93775C7.01169 9.18764 7.44583 8.76513 7.91935 8.12052C8.58672 7.21191 8.53624 7.06047 7.96579 5.83384C7.52105 4.8798 6.30797 2.95656 5.49723 2.159C4.62994 1.30238 4.62994 1.45381 4.07111 1.68602C3.61615 1.87742 3.17968 2.11009 2.76716 2.38111C1.95945 2.91769 1.51117 3.36342 1.19767 4.03327C0.88418 4.70312 0.743336 6.27351 2.36229 9.21439C3.98125 12.1553 5.1171 13.659 7.46804 16.0033C9.81899 18.3475 11.6268 19.6079 14.2695 21.09C17.5387 22.9208 18.7927 22.564 19.4646 22.251C20.1365 21.938 20.5843 21.4938 21.1219 20.6862C21.3936 20.2744 21.6268 19.8384 21.8186 19.3838C22.0513 18.827 22.2027 18.827 21.3445 17.9603Z" stroke="#CDA274" stroke-width="2" stroke-miterlimit="10"/>
</svg>
