<svg width="19" height="16" viewBox="0 0 19 16" fill="none" xmlns="http://www.w3.org/2000/svg">
<path d="M16.9557 4.57666C17.6588 4.04932 18.2916 3.4165 18.7838 2.67822C18.151 2.95947 17.4127 3.17041 16.6744 3.24072C17.4479 2.78369 18.0104 2.08057 18.2916 1.20166C17.5885 1.62354 16.7799 1.93994 15.9713 2.11572C15.2682 1.37744 14.319 0.955566 13.2643 0.955566C11.2252 0.955566 9.57288 2.60791 9.57288 4.64697C9.57288 4.92822 9.60804 5.20947 9.67835 5.49072C6.61976 5.31494 3.87757 3.83838 2.04945 1.62354C1.73304 2.15088 1.55726 2.78369 1.55726 3.48682C1.55726 4.75244 2.19007 5.87744 3.2096 6.54541C2.61195 6.51025 2.01429 6.36963 1.5221 6.08838V6.12354C1.5221 7.9165 2.78773 9.39307 4.47523 9.74463C4.19398 9.81494 3.84241 9.88525 3.52601 9.88525C3.27991 9.88525 3.06898 9.8501 2.82288 9.81494C3.27991 11.2915 4.65101 12.3462 6.2682 12.3813C5.00257 13.3657 3.42054 13.9634 1.69788 13.9634C1.38148 13.9634 1.10023 13.9282 0.818977 13.8931C2.43616 14.9478 4.36976 15.5454 6.47913 15.5454C13.2643 15.5454 16.9557 9.95557 16.9557 5.06885C16.9557 4.89307 16.9557 4.75244 16.9557 4.57666Z" fill="#292F36"/>
</svg>
